<svg xmlns="http://www.w3.org/2000/svg" version="1.1" xmlns:xlink="http://www.w3.org/1999/xlink" xmlns:svgjs="http://svgjs.com/svgjs" width="1440" height="560" preserveAspectRatio="none" viewBox="0 0 1440 560"><g mask="url(&quot;#SvgjsMask1270&quot;)" fill="none"><rect width="1440" height="560" x="0" y="0" fill="url(#SvgjsLinearGradient1271)"></rect><path d="M357.8502342996504 553.395245386245L353.19877326727743 420.19482912759815 219.99835700863048 424.84629015997115 224.6498180410035 558.0467064186181z" fill="rgba(20, 89, 162, 0.4)" class="triangle-float1"></path><path d="M647.1384400804675-44.84696551397915L564.3058249124898-96.60652807094809 528.0827886610252 53.52217595950295z" fill="rgba(20, 89, 162, 0.4)" class="triangle-float2"></path><path d="M1295.268,345.758C1353.897,347.475,1419.201,339.359,1449.331,289.035C1480.016,237.784,1461.841,172.735,1428.558,123.131C1399.15,79.303,1348.032,60.72,1295.268,59.423C1239.593,58.055,1179.804,69.164,1150.127,116.29C1118.854,165.95,1124.707,230.85,1156.078,280.448C1185.441,326.871,1240.362,344.15,1295.268,345.758" fill="rgba(20, 89, 162, 0.4)" class="triangle-float1"></path><path d="M123.60873429643115 264.18962405848833L247.45267888369716 319.32850069050005 178.74761092844284 140.34567947122235z" fill="rgba(20, 89, 162, 0.4)" class="triangle-float3"></path><path d="M1411.7422150966997 345.31107422783714L1320.1791472035786 471.33682545880373 1446.2048984345452 562.8998933519249 1537.7679663276663 436.8741421209583z" fill="rgba(20, 89, 162, 0.4)" class="triangle-float2"></path><path d="M810.305,276.339C862.322,275.256,904.819,238.508,929.539,192.728C952.947,149.378,954.06,97.775,929.916,54.831C905.273,10.999,860.582,-20.18,810.305,-19.352C761.262,-18.544,722.254,16.416,697.331,58.662C671.908,101.755,659.099,153.472,682.147,197.88C706.877,245.53,756.632,277.457,810.305,276.339" fill="rgba(20, 89, 162, 0.4)" class="triangle-float3"></path><path d="M110.152,396.831C126.873,397.244,141.535,387.112,150.412,372.936C159.95,357.706,165.789,338.311,156.392,322.994C147.27,308.125,127.581,306.579,110.152,307.31C94.307,307.975,78.134,312.894,70.177,326.612C62.196,340.371,65.324,357.206,73.193,371.029C81.16,385.023,94.054,396.434,110.152,396.831" fill="rgba(20, 89, 162, 0.4)" class="triangle-float3"></path><path d="M231.83749091777077 98.08741444985489L178.06714033015902 12.036865765857087 145.78694223377295 151.8577650374666z" fill="rgba(20, 89, 162, 0.4)" class="triangle-float1"></path><path d="M819.6376118505526-14.35955169632575L751.1674722162398 114.11851786115889 878.4116223832241 111.89746295825819z" fill="rgba(20, 89, 162, 0.4)" class="triangle-float1"></path><path d="M1048.507,563.014C1094.903,563.652,1144.637,557.007,1170.513,518.492C1199.073,475.981,1201.665,418.734,1174.686,375.203C1148.887,333.575,1097.453,319.975,1048.507,321.635C1002.802,323.185,959.884,344.087,936.328,383.285C912.037,423.706,907.206,475.212,932.175,515.217C955.966,553.335,1003.578,562.397,1048.507,563.014" fill="rgba(20, 89, 162, 0.4)" class="triangle-float2"></path><path d="M982.6177941757959 369.12437425042515L1044.9926778793958 481.651643181221 1157.5199468101919 419.27675947762094 1095.1450631065918 306.7494905468251z" fill="rgba(20, 89, 162, 0.4)" class="triangle-float2"></path><path d="M764.929031214245 142.34805341281142L733.8936930053135 34.114966673496 656.6959444749295 173.38339162174302z" fill="rgba(20, 89, 162, 0.4)" class="triangle-float2"></path><path d="M380.1923728874651 563.3044588400583L404.6988822231587 457.15510488958205 233.22159662959754 473.4700178612798z" fill="rgba(20, 89, 162, 0.4)" class="triangle-float2"></path><path d="M126.11157956693053 200.7728544024318L178.40204419901013 83.3265479142431 8.665273078741834 148.4823897703522z" fill="rgba(20, 89, 162, 0.4)" class="triangle-float1"></path><path d="M585.493,600.187C642.396,601.645,704.965,598.704,737.319,551.871C773.45,499.57,772.905,429.408,741.749,374C709.985,317.511,650.211,278.462,585.493,281.864C525.33,285.026,483.49,335.805,455.314,389.056C429.313,438.196,417.393,497.098,446.571,544.421C474.64,589.945,532.029,598.817,585.493,600.187" fill="rgba(20, 89, 162, 0.4)" class="triangle-float3"></path><path d="M1266.6637803676529 54.465558746924145L1240.720973419426 176.51686943993988 1362.7722841124416 202.45967638816688 1388.7150910606686 80.40836569515116z" fill="rgba(20, 89, 162, 0.4)" class="triangle-float3"></path><path d="M253.19486614294112 338.0808336108252L282.0296570532716 249.33647232821056 193.28529577065694 220.5016814178801 164.45050486032648 309.24604270049474z" fill="rgba(20, 89, 162, 0.4)" class="triangle-float3"></path><path d="M416.8868754279314-73.03287097367755L299.72660755521207 43.90429698560203 438.82210433798576 83.78928886789151z" fill="rgba(20, 89, 162, 0.4)" class="triangle-float1"></path><path d="M270.944,298.296C302.43,297.261,325.668,271.507,339.983,243.444C352.874,218.174,354.049,188.354,339.43,164.043C325.235,140.438,298.488,128.74,270.944,128.637C243.199,128.533,216.634,140.232,201.565,163.528C185.051,189.058,179.653,221.222,193.57,248.255C208.638,277.524,238.042,299.377,270.944,298.296" fill="rgba(20, 89, 162, 0.4)" class="triangle-float3"></path><path d="M1093.04083850739 411.96108471248516L913.5635924401121 459.8685884375882 1026.3653271076673 576.678204134002z" fill="rgba(20, 89, 162, 0.4)" class="triangle-float1"></path></g><defs><mask id="SvgjsMask1270"><rect width="1440" height="560" fill="#ffffff"></rect></mask><linearGradient x1="15.28%" y1="139.29%" x2="84.72%" y2="-39.29%" gradientUnits="userSpaceOnUse" id="SvgjsLinearGradient1271"><stop stop-color="rgba(14, 42, 71, 1)" offset="0.26"></stop><stop stop-color="rgba(0, 69, 158, 1)" offset="1"></stop></linearGradient><style>
            @keyframes float1 {
                0%{transform: translate(0, 0)}
                50%{transform: translate(-10px, 0)}
                100%{transform: translate(0, 0)}
            }

            .triangle-float1 {
                animation: float1 5s infinite;
            }

            @keyframes float2 {
                0%{transform: translate(0, 0)}
                50%{transform: translate(-5px, -5px)}
                100%{transform: translate(0, 0)}
            }

            .triangle-float2 {
                animation: float2 4s infinite;
            }

            @keyframes float3 {
                0%{transform: translate(0, 0)}
                50%{transform: translate(0, -10px)}
                100%{transform: translate(0, 0)}
            }

            .triangle-float3 {
                animation: float3 6s infinite;
            }
        </style></defs></svg>

